#N canvas 227 155 950 559 10;
#X obj 20 69 gemwin;
#X obj 20 94 gemhead;
#X obj 20 125 gemframebuffer;
#X obj 20 154 translateXYZ 0 0 -4;
#X obj 20 208 t a a;
#X obj 47 253 translateXYZ;
#X obj 47 230 separator;
#X obj 20 353 separator;
#X obj 20 404 color 0 0 0;
#X obj 83 71 loadbang;
#X obj 202 143 gemhead;
#X obj 202 174 repeat 100;
#X obj 202 196 t a b;
#X obj 229 219 f;
#X obj 253 219 + 1;
#X obj 281 219 % 100;
#X obj 202 248 separator;
#X obj 202 355 translateXYZ;
#X obj 202 410 pix_texture;
#X obj 274 277 % 10;
#X obj 274 302 k_range 0 9 -3.6 3.6;
#X obj 309 322 k_range 0 9 -3.6 3.6;
#X obj 309 276 expr int($f1/10);
#X obj 20 376 translateXYZ -0.25 0.25 0;
#X obj 492 27 gemmouse 1 1;
#X obj 492 58 expr $f1*8-4;
#X floatatom 489 113 5 0 0 0 - - -;
#X floatatom 506 138 5 0 0 0 - - -;
#X obj 509 85 expr $f1*-8+4;
#X obj 550 345 + 1;
#X obj 577 344 % 100;
#X obj 525 398 % 10;
#X obj 525 423 k_range 0 9 -3.6 3.6;
#X obj 579 395 k_range 0 9 -3.6 3.6;
#X obj 579 370 expr int($f1/10);
#X obj 489 161 v \$0-x;
#X obj 506 182 v \$0-y;
#X obj 486 311 t b b b;
#X obj 461 352 v \$0-x;
#X obj 479 373 v \$0-y;
#X obj 525 370 t f f f;
#X obj 479 520 tabwrite angle;
#X msg 20 38 destroy \, reset \, FSAA 8 \, diemn 500 500 \, color 1
1 1 \, create \, 1;
#X obj 202 308 alpha;
#X obj 308 350 tabread angle;
#X obj 20 184 translateXYZ -2 1 0;
#X obj 47 308 colorRGB 0 0 0 0.2;
#X obj 350 168 table angle 100;
#X msg 351 107 \; angle const 0;
#X obj 525 345 f 0;
#X obj 486 272 repeat 100;
#X obj 461 447 expr ($f1-$f2);
#X obj 479 476 expr ($f1-$f2);
#X obj 202 384 rotateXYZ 0 0 0;
#X obj 479 495 expr atan2($f1 \, $f2)/3.1415926;
#X obj 308 373 * 180;
#X msg 83 96 dimen 1000 1000 \, color 1 1 1 0 \, format RGBA;
#X obj 20 433 circle 1.2;
#X obj 47 330 circle 1.4;
#X obj 202 439 square 1;
#X obj 350 144 table size 100;
#X obj 774 306 + 1;
#X obj 801 305 % 100;
#X obj 749 359 % 10;
#X obj 749 384 k_range 0 9 -3.6 3.6;
#X obj 803 356 k_range 0 9 -3.6 3.6;
#X obj 803 331 expr int($f1/10);
#X obj 710 272 t b b b;
#X obj 685 313 v \$0-x;
#X obj 703 334 v \$0-y;
#X obj 749 331 t f f f;
#X obj 749 306 f 0;
#X obj 710 233 repeat 100;
#X obj 486 235 t b b;
#X obj 685 367 pack f f;
#X obj 749 410 pack f f;
#X obj 685 440 distance2d;
#X obj 685 466 / 8;
#X obj 685 493 tabwrite size;
#X obj 274 246 t f f f f;
#X obj 350 379 tabread size;
#X obj 350 401 k_range 0 1 1 0.1;
#X obj 462 89 t b f;
#X connect 1 0 2 0;
#X connect 2 0 3 0;
#X connect 2 1 18 1;
#X connect 3 0 45 0;
#X connect 4 0 7 0;
#X connect 4 1 6 0;
#X connect 5 0 46 0;
#X connect 6 0 5 0;
#X connect 7 0 23 0;
#X connect 8 0 57 0;
#X connect 9 0 56 0;
#X connect 10 0 11 0;
#X connect 11 0 12 0;
#X connect 12 0 16 0;
#X connect 12 1 13 0;
#X connect 13 0 14 0;
#X connect 13 0 79 0;
#X connect 14 0 15 0;
#X connect 15 0 13 1;
#X connect 16 0 43 0;
#X connect 17 0 53 0;
#X connect 18 0 59 0;
#X connect 19 0 20 0;
#X connect 20 0 17 1;
#X connect 21 0 17 2;
#X connect 22 0 21 0;
#X connect 23 0 8 0;
#X connect 24 0 25 0;
#X connect 24 1 28 0;
#X connect 25 0 82 0;
#X connect 26 0 35 0;
#X connect 27 0 36 0;
#X connect 28 0 27 0;
#X connect 29 0 30 0;
#X connect 30 0 49 1;
#X connect 31 0 32 0;
#X connect 32 0 51 1;
#X connect 33 0 52 1;
#X connect 34 0 33 0;
#X connect 37 0 39 0;
#X connect 37 1 38 0;
#X connect 37 2 49 0;
#X connect 38 0 51 0;
#X connect 39 0 52 0;
#X connect 40 0 31 0;
#X connect 40 1 34 0;
#X connect 40 2 41 1;
#X connect 42 0 0 0;
#X connect 43 0 17 0;
#X connect 44 0 55 0;
#X connect 45 0 4 0;
#X connect 46 0 58 0;
#X connect 49 0 29 0;
#X connect 49 0 40 0;
#X connect 50 0 37 0;
#X connect 51 0 54 1;
#X connect 52 0 54 0;
#X connect 53 0 18 0;
#X connect 54 0 41 0;
#X connect 55 0 53 3;
#X connect 56 0 2 0;
#X connect 61 0 62 0;
#X connect 62 0 71 1;
#X connect 63 0 64 0;
#X connect 64 0 75 0;
#X connect 65 0 75 1;
#X connect 66 0 65 0;
#X connect 67 0 68 0;
#X connect 67 1 69 0;
#X connect 67 2 71 0;
#X connect 68 0 74 0;
#X connect 69 0 74 1;
#X connect 70 0 63 0;
#X connect 70 1 66 0;
#X connect 70 2 78 1;
#X connect 71 0 61 0;
#X connect 71 0 70 0;
#X connect 72 0 67 0;
#X connect 73 0 50 0;
#X connect 73 1 72 0;
#X connect 74 0 76 0;
#X connect 75 0 76 1;
#X connect 76 0 77 0;
#X connect 77 0 78 0;
#X connect 79 0 19 0;
#X connect 79 1 22 0;
#X connect 79 2 44 0;
#X connect 79 3 80 0;
#X connect 80 0 81 0;
#X connect 81 0 59 1;
#X connect 82 0 73 0;
#X connect 82 1 26 0;
